<?xml version="1.0" standalone="no"?>
<!DOCTYPE svg PUBLIC "-//W3C//DTD SVG 20010904//EN"
 "http://www.w3.org/TR/2001/REC-SVG-20010904/DTD/svg10.dtd">
<svg version="1" xmlns="http://www.w3.org/2000/svg"
 width="600pt" height="600pt" viewBox="0 0 600 600"
 preserveAspectRatio="xMidYMid meet">

<g transform="matrix(0.1,0,0,-0.1,0,800)"
fill="#ffffff" stroke="none">
<path transform="matrix(0.9,0,0,0.9,798.9,2169.1)" d="M 3412 4930.7 c -217 -39 -400 -174 -497 -367 c -29 -59 -28 -91 5 -103 c 34 -13 48 -2 79 64 c 111 233 381 373 596 310 c 107 -32 238 -112 290 -178 c 10 -13 42 -44 71 -68 l 52 -43 l 330 -5 c 292 -4 335 -7 364 -23 c 17 -10 32 -21 32 -25 c 0 -13 -43 -13 -68 0 c -37 19 -57 -1 -56 -54 c 2 -61 34 -120 77 -143 l 35 -19 l -20 -40 c -33 -65 -67 -103 -118 -135 c -71 -44 -135 -60 -330 -81 c -266 -30 -306 -39 -425 -89 c -96 -40 -110 -50 -113 -72 c -2 -15 4 -31 13 -39 c 13 -11 22 -10 53 5 c 141 68 172 76 367 96 c 285 28 394 54 491 117 c 138 90 213 241 201 406 c -14 170 -56 185 -510 186 l -297 0 l -67 70 c -78 84 -203 170 -297 205 c -75 28 -184 39 -258 25 z"/>
<path transform="matrix(0.9,0,0,0.9,285.6,1500.7)" d="M 795 5398.1 c -45 -10 -135 -66 -195 -119 c -75 -67 -144 -172 -175 -265 c -23 -71 -27 -97 -27 -211 c 0 -105 4 -147 23 -215 c 29 -111 86 -229 147 -309 c 27 -35 54 -71 61 -80 c 10 -13 9 -27 -4 -66 c -11 -37 -17 -107 -20 -263 c -6 -223 4 -364 36 -509 c 16 -75 16 -83 1 -129 c -10 -27 -27 -68 -39 -91 c -33 -66 -28 -100 28 -179 c 89 -127 251 -261 369 -307 c 57 -23 156 -22 207 2 c 107 49 161 169 135 295 c -14 70 -45 116 -93 139 c -50 25 -86 16 -152 -39 l -54 -44 l -6 34 c -13 64 -5 76 63 102 c 111 42 206 124 256 221 c 24 47 28 50 98 72 c 93 29 292 39 406 21 c 42 -7 163 -37 267 -66 c 353 -101 625 -137 883 -115 c 178 14 271 33 289 57 c 15 21 16 24 4 43 c -8 12 -27 12 -143 0 c -184 -19 -473 -17 -618 5 c -135 20 -198 35 -340 81 c -204 65 -355 95 -484 95 c -72 0 -212 -22 -271 -43 l -40 -14 l -1 111 c -2 137 -25 219 -63 224 c -33 5 -53 -22 -41 -54 c 18 -46 27 -169 19 -234 c -22 -157 -137 -284 -312 -345 c -39 -13 -62 -27 -67 -40 c -4 -11 1 -74 10 -139 c 18 -119 30 -146 67 -146 c 7 0 40 25 74 55 c 34 31 72 58 85 61 c 58 15 96 -59 74 -145 c -16 -65 -35 -90 -87 -113 c -77 -34 -142 -13 -283 90 c -100 73 -135 106 -182 175 l -39 58 l 17 44 c 17 45 27 54 39 35 c 10 -16 55 -12 62 6 c 3 8 -9 73 -26 144 c -47 194 -63 324 -64 510 c 0 199 17 290 73 406 c 85 174 252 266 530 294 c 172 17 249 6 725 -102 l 190 -42 l 240 0 c 264 0 347 11 540 75 c 86 28 270 114 308 143 c 18 14 28 78 15 91 c -3 3 -52 -19 -109 -49 c -200 -105 -404 -157 -692 -178 c -159 -11 -174 -11 -290 10 c -67 13 -216 45 -332 72 c -115 27 -248 54 -295 59 c -171 22 -357 9 -528 -35 c -110 -29 -157 -51 -234 -110 l -57 -45 l -41 53 c -89 111 -130 239 -130 397 c 1 230 68 406 176 460 c 23 12 46 21 52 21 c 15 0 42 29 42 45 c 0 15 -27 46 -38 44 c -4 -1 -22 -5 -39 -9 z m -275 -435 c -6 -39 -8 -113 -5 -165 c 10 -161 51 -278 145 -409 c 48 -67 52 -77 41 -97 c -15 -30 -23 -25 -70 49 c -141 217 -188 443 -131 626 c 13 40 25 71 27 69 c 2 -2 -1 -35 -7 -73 z"/>
<path transform="matrix(0.9,0,0,0.9,692.5,1880.3)" d="M 3233.6 4839.2 c -112 -246 -159 -554 -111 -742 c 55 -220 235 -529 319 -551 c 53 -13 98 5 151 59 c 58 60 92 116 145 243 c 69 166 94 352 71 528 c -13 97 -93 387 -117 423 c -19 29 -51 30 -65 1 c -8 -18 0 -57 36 -183 c 61 -216 69 -266 62 -414 c -4 -95 -12 -149 -32 -216 c -34 -116 -102 -258 -149 -312 c -70 -80 -107 -55 -212 143 c -123 233 -159 379 -136 563 c 16 122 50 252 103 388 c 45 115 45 135 -5 141 c -24 3 -29 -3 -60 -71 z"/>
<path transform="matrix(0.9,0,0,0.9,807.6,2197.9)" d="M 3859.6 4462.6 c -37 -36 -35 -97 4 -136 c 35 -34 59 -36 95 -8 c 21 16 26 29 26 63 c 0 38 -19 81 -44 98 c -21 15 -57 7 -81 -17 z"/>
<path transform="matrix(0.9,0,0,0.9,680.4,1217.3)" d="M 3886.6 4681.4 c -12 -18 -13 -32 -5 -63 c 5 -22 12 -94 15 -160 c 9 -174 -20 -279 -108 -396 c -59 -78 -104 -143 -160 -232 l -55 -86 l -7 111 c -4 61 -11 118 -18 125 c -15 19 -56 16 -67 -4 c -5 -11 -5 -55 0 -113 c 10 -101 6 -222 -16 -414 c -15 -130 -9 -166 25 -166 c 12 0 39 19 62 45 c 71 78 112 58 123 -61 c 8 -85 -3 -140 -35 -169 c -29 -26 -204 -42 -282 -26 c -89 19 -101 33 -109 132 c -10 131 -58 256 -174 454 c -29 50 -82 148 -116 218 c -48 96 -70 129 -87 134 c -25 6 -52 -12 -52 -35 c 0 -23 103 -231 179 -362 c 119 -203 151 -288 160 -423 c 7 -96 7 -98 46 -137 c 60 -61 111 -72 305 -68 c 179 3 198 10 235 84 c 17 33 20 57 19 149 c -2 130 -15 184 -54 228 c -26 30 -33 32 -92 32 l -64 0 l 6 41 c 3 22 27 74 52 115 c 84 137 199 314 240 368 c 92 122 138 266 138 431 c 0 195 -54 324 -104 248 z"/>
</g>
</svg>
